# This file uses centimeters as units for non-parametric coordinates.

mtllib elevatorBase.mtl
g default
v 138.067257 -393.104978 513.448361
v 188.067257 -393.104978 513.448361
v 238.067257 -393.104978 513.448361
v 138.067471 6.895022 513.448361
v 188.067471 6.895022 513.448361
v 238.067471 6.895022 513.448361
v 138.067471 6.895022 -80.758678
v 188.067471 6.895022 -80.758678
v 238.067471 6.895022 -80.758678
v 178.019726 6.895022 -85.644900
v 188.067471 6.895022 -85.644900
v 238.067471 6.895022 -85.644900
v 178.019726 6.895022 -105.644900
v 188.067471 6.895022 -105.644900
v 238.067471 6.895022 -105.644900
v 138.067471 6.895022 -110.531123
v 188.067471 6.895022 -110.531123
v 238.067471 6.895022 -110.531123
v 138.067471 6.895022 -145.644900
v 188.067471 6.895022 -145.644900
v 238.067471 6.895022 -145.644900
v 138.067257 -393.104978 -145.644900
v 188.067257 -393.104978 -145.644900
v 238.067257 -393.104978 -145.644900
v 138.067257 -393.104978 -110.531123
v 188.067257 -393.104978 -110.531123
v 238.067257 -393.104978 -110.531123
v 178.019512 -393.104978 -105.644900
v 188.067257 -393.104978 -105.644900
v 238.067257 -393.104978 -105.644900
v 178.019512 -393.104978 -85.644900
v 188.067257 -393.104978 -85.644900
v 238.067257 -393.104978 -85.644900
v 138.067257 -393.104978 -80.758678
v 188.067257 -393.104978 -80.758678
v 238.067257 -393.104978 -80.758678
v 138.067364 -264.580503 513.448361
v 138.067364 -264.580503 -80.758678
v 178.019619 -264.580503 -85.644900
v 178.019619 -264.580503 -105.644900
v 138.067364 -264.580503 -110.531123
v 138.067364 -264.580503 -145.644900
v 188.067364 -264.580503 -145.644900
v 238.067364 -264.580503 -145.644900
v 238.067364 -264.580503 -110.531123
v 238.067364 -264.580503 -105.644900
v 238.067364 -264.580503 -85.644900
v 238.067364 -264.580503 -80.758678
v 238.067364 -264.580503 513.448361
v 188.067364 -264.580503 513.448361
v 138.067257 -393.104978 219.450559
v 138.067364 -264.580503 219.450559
v 138.067471 6.895022 219.450559
v 188.067471 6.895022 219.450559
v 238.067471 6.895022 219.450559
v 238.067364 -264.580503 219.450559
v 238.067257 -393.104978 219.450559
v 188.067257 -393.104978 219.450559
v 138.067257 -393.104978 313.360349
v 138.067364 -264.580503 313.360349
v 138.067471 6.895022 313.360349
v 188.067471 6.895022 313.360349
v 238.067471 6.895022 313.360349
v 238.067364 -264.580503 313.360349
v 238.067257 -393.104978 313.360349
v 188.067257 -393.104978 313.360349
v 159.048153 -393.104978 219.450559
v 159.048153 -393.104978 313.360349
v 159.048260 -264.580503 313.360349
v 159.048260 -264.580503 219.450559
vt 0.009427 0.643270
vt 0.009427 0.643270
vt 0.518601 0.638426
vt 0.009427 0.754328
vt 0.009427 0.643270
vt 0.009427 0.754328
vt 0.225940 0.988909
vt 0.486392 0.528558
vt 0.486211 0.566069
vt 0.447027 0.988909
vt 0.225940 0.988909
vt 0.447027 0.988909
vt 0.112048 0.563726
vt 0.112230 0.526216
vt 0.450625 0.988909
vt 0.486029 0.603580
vt 0.111866 0.601237
vt 0.465354 0.988909
vt 0.105958 0.563688
vt 0.468952 0.988909
vt 0.468952 0.988909
vt 0.551206 0.638426
vt 0.494811 0.988909
vt 0.494811 0.988909
vt 0.494811 0.754328
vt 0.551206 0.749310
vt 0.494811 0.643270
vt 0.494811 0.643270
vt 0.494811 0.754328
vt 0.494811 0.643270
vt 0.468952 0.643270
vt 0.468952 0.643270
vt 0.468952 0.643270
vt 0.465354 0.643270
vt 0.465354 0.643270
vt 0.465354 0.643270
vt 0.450625 0.643270
vt 0.450625 0.643270
vt 0.450625 0.643270
vt 0.447027 0.643270
vt 0.447027 0.643270
vt 0.447027 0.643270
vt 0.225940 0.643270
vt 0.225940 0.643270
vt 0.225940 0.643270
vt 0.468952 0.754328
vt 0.465354 0.754328
vt 0.450625 0.754328
vt 0.447027 0.754328
vt 0.225940 0.754328
vt 0.468952 0.754328
vt 0.987800 0.026618
vt 0.972939 0.026618
vt 0.447027 0.754328
vt 0.225940 0.754328
vt 0.009427 0.988909
vt 0.518601 0.749310
vt 0.009427 0.988909
vt 0.225940 0.643270
vt 0.156781 0.643270
vt 0.537451 0.040511
vt 0.537451 0.477590
vt 0.156781 0.754328
vt 0.156781 0.988909
vt 0.105995 0.556150
vt 0.156781 0.988909
vt 0.156781 0.754328
vt 0.156781 0.643270
vt 0.156781 0.643270
vt 0.156781 0.643270
vt 0.972939 0.330824
vt 0.987800 0.330824
vt 0.912111 0.026618
vt 0.912111 0.330824
vt 0.897250 0.026618
vt 0.897250 0.330824
vt 0.897250 0.973382
vt 0.912111 0.973382
vt 0.972939 0.973382
vt 0.987800 0.973382
vt 0.868436 0.034517
vt 0.602651 0.034517
vt 0.602651 0.477756
vt 0.868436 0.477756
vt 0.105776 0.601199
vt 0.081032 0.563532
vt 0.081068 0.555994
vt 0.080850 0.601043
vt 0.074942 0.563494
vt 0.075124 0.525983
vt 0.074760 0.601005
vt 0.031178 0.563220
vt 0.031360 0.525709
vt 0.030996 0.600731
vt 0.603436 0.529291
vt 0.603254 0.566802
vt 0.603072 0.604312
vt 0.852813 0.530852
vt 0.852631 0.568363
vt 0.852449 0.605874
vt 0.583811 0.638426
vt 0.583811 0.749310
vt 0.518601 0.749310
vt 0.551206 0.749310
vt 0.551206 0.638426
vt 0.518601 0.638426
vt 0.583811 0.749310
vt 0.583811 0.638426
vt 0.518601 0.983522
vt 0.551206 0.983522
vt 0.583811 0.983522
vt 0.583811 0.983522
vt 0.551206 0.983522
vt 0.518601 0.983522
vt 0.579961 0.477590
vt 0.579960 0.040511
vt 0.537451 0.477590
vt 0.579961 0.477590
vt 0.537451 0.040511
vt 0.579960 0.040511
vn 0.000000 0.000000 1.000000
vn 0.000000 0.000000 1.000000
vn 0.000000 0.000000 1.000000
vn 0.000000 0.000000 1.000000
vn 0.000000 0.000000 1.000000
vn 0.000000 0.000000 1.000000
vn 0.000000 1.000000 0.000000
vn 0.000000 1.000000 0.000000
vn 0.000000 1.000000 0.000000
vn 0.000000 1.000000 0.000000
vn 0.000000 1.000000 0.000000
vn 0.000000 1.000000 0.000000
vn 0.000000 1.000000 0.000000
vn 0.000000 1.000000 0.000000
vn 0.000000 1.000000 0.000000
vn 0.000000 1.000000 0.000000
vn 0.000000 1.000000 0.000000
vn 0.000000 1.000000 0.000000
vn 0.000000 1.000000 0.000000
vn 0.000000 1.000000 0.000000
vn 0.000000 1.000000 0.000000
vn 0.000000 1.000000 0.000000
vn 0.000000 1.000000 0.000000
vn 0.000000 1.000000 0.000000
vn 0.000000 0.000000 -1.000000
vn 0.000000 0.000000 -1.000000
vn 0.000000 0.000000 -1.000000
vn 0.000000 0.000000 -1.000000
vn 0.000000 0.000000 -1.000000
vn 0.000000 0.000000 -1.000000
vn 0.000000 -1.000000 0.000000
vn 0.000000 -1.000000 0.000000
vn 0.000000 -1.000000 0.000000
vn 0.000000 -1.000000 0.000000
vn 0.000000 -1.000000 0.000000
vn 0.000000 -1.000000 0.000000
vn 0.000000 -1.000000 0.000000
vn 0.000000 -1.000000 0.000000
vn 0.000000 -1.000000 0.000000
vn 0.000000 -1.000000 0.000000
vn 0.000000 -1.000000 0.000000
vn 0.000000 -1.000000 0.000000
vn 0.000000 -1.000000 0.000000
vn 0.000000 -1.000000 0.000000
vn 0.000000 -1.000000 0.000000
vn 0.000000 -1.000000 0.000000
vn 0.000000 -1.000000 0.000000
vn 0.000000 -1.000000 0.000000
vn 1.000000 -0.000001 0.000000
vn 1.000000 -0.000001 0.000000
vn 1.000000 -0.000001 0.000000
vn 1.000000 -0.000001 0.000000
vn 1.000000 -0.000001 0.000000
vn 1.000000 -0.000001 0.000000
vn 1.000000 -0.000001 0.000000
vn 1.000000 -0.000001 0.000000
vn 1.000000 -0.000001 0.000000
vn 1.000000 -0.000001 0.000000
vn 1.000000 -0.000001 0.000000
vn 1.000000 -0.000001 0.000000
vn -1.000000 0.000001 0.000000
vn -0.748798 0.000001 0.662798
vn -0.748798 0.000000 0.662798
vn -1.000000 0.000001 0.000000
vn -0.748798 0.000001 0.662798
vn -0.748798 0.000000 0.662798
vn -0.748798 0.000001 -0.662798
vn -0.748798 0.000000 -0.662798
vn -0.748798 0.000001 -0.662798
vn -0.748798 0.000000 -0.662798
vn -1.000000 0.000001 0.000000
vn -1.000000 0.000001 0.000000
vn -1.000000 0.000000 0.000000
vn -0.748798 0.000000 -0.662798
vn -0.748798 0.000000 -0.662798
vn -0.748798 0.000000 0.662798
vn -0.748798 0.000000 0.662798
vn -1.000000 0.000000 0.000000
vn 0.000000 0.000000 -1.000000
vn 0.000000 0.000000 -1.000000
vn 0.000000 0.000000 -1.000000
vn 1.000000 -0.000000 0.000000
vn 1.000000 -0.000000 0.000000
vn 1.000000 -0.000000 0.000000
vn 1.000000 -0.000000 0.000000
vn 1.000000 -0.000000 0.000000
vn 1.000000 -0.000000 0.000000
vn 0.000000 0.000000 1.000000
vn 0.000000 0.000000 1.000000
vn 0.000000 0.000000 1.000000
vn -1.000000 0.000001 0.000000
vn -1.000000 0.000001 0.000000
vn -1.000000 0.000001 0.000000
vn -1.000000 0.000001 0.000000
vn -1.000000 0.000001 0.000000
vn -1.000000 0.000000 0.000000
vn 0.000000 1.000000 0.000000
vn 0.000000 1.000000 0.000000
vn 0.000000 1.000000 0.000000
vn 1.000000 -0.000001 0.000000
vn 1.000000 -0.000000 0.000000
vn 1.000000 -0.000001 0.000000
vn 0.000000 -1.000000 0.000000
vn 0.000000 -1.000000 0.000000
vn 0.000000 -1.000000 0.000000
vn -1.000000 0.000001 0.000000
vn -1.000000 0.000001 0.000000
vn -1.000000 0.000001 0.000000
vn -1.000000 0.000000 0.000000
vn 0.000000 1.000000 0.000000
vn 0.000000 1.000000 0.000000
vn 0.000000 1.000000 0.000000
vn 1.000000 -0.000001 0.000000
vn 1.000000 -0.000000 0.000000
vn 1.000000 -0.000001 0.000000
vn 0.000000 -1.000000 0.000000
vn 0.000000 -1.000000 0.000000
vn 0.000000 -1.000000 0.000000
vn 0.000000 1.000000 0.000000
vn 0.000000 1.000000 0.000000
vn 0.000000 1.000000 0.000000
vn 0.000000 1.000000 0.000000
vn 0.000000 0.000000 -1.000000
vn 0.000000 0.000000 -1.000000
vn 0.000000 0.000000 -1.000000
vn 0.000000 0.000000 -1.000000
vn 0.000000 -1.000000 0.000000
vn 0.000000 -1.000000 0.000000
vn 0.000000 -1.000000 0.000000
vn 0.000000 -1.000000 0.000000
vn 0.000000 0.000000 1.000000
vn 0.000000 0.000000 1.000000
vn 0.000000 0.000000 1.000000
vn 0.000000 0.000000 1.000000
s 1
g elevatorCase
usemtl lambert3SG
f 1/3/1 2/22/2 50/26/3 37/57/4
f 2/22/2 3/101/5 49/102/6 50/26/3
s 2
f 53/8/7 54/9/8 8/13/9 7/14/10
f 54/9/8 55/16/11 9/17/12 8/13/9
f 7/14/10 8/13/9 11/19/13 10/65/14
f 8/13/9 9/17/12 12/85/15 11/19/13
f 10/65/14 11/19/13 14/86/16 13/87/17
f 11/19/13 12/85/15 15/88/18 14/86/16
f 13/87/17 14/86/16 17/89/19 16/90/20
f 14/86/16 15/88/18 18/91/21 17/89/19
f 16/90/20 17/89/19 20/92/22 19/93/23
f 17/89/19 18/91/21 21/94/24 20/92/22
s 3
f 42/103/25 43/104/26 23/105/27 22/106/28
f 43/104/26 44/107/29 24/108/30 23/105/27
s 4
f 22/28/31 23/27/32 26/31/33 25/32/34
f 23/27/32 24/30/35 27/33/36 26/31/33
f 25/32/34 26/31/33 29/34/37 28/35/38
f 26/31/33 27/33/36 30/36/39 29/34/37
f 28/35/38 29/34/37 32/37/40 31/38/41
f 29/34/37 30/36/39 33/39/42 32/37/40
f 31/38/41 32/37/40 35/40/43 34/41/44
f 32/37/40 33/39/42 36/42/45 35/40/43
f 34/41/44 35/40/43 58/43/46 51/44/47
f 35/40/43 36/42/45 57/45/48 58/43/46
s 5
f 27/33/49 24/30/50 44/29/51 45/46/52
f 30/36/53 27/33/49 45/46/52 46/47/54
f 33/39/55 30/36/53 46/47/54 47/48/56
f 36/42/57 33/39/55 47/48/56 48/49/58
f 57/45/59 36/42/57 48/49/58 56/50/60
s 6
f 22/28/61 25/32/62 41/51/63 42/25/64
f 25/52/62 28/53/65 40/71/66 41/72/63
f 28/53/65 31/73/67 39/74/68 40/71/66
f 31/73/67 34/75/69 38/76/70 39/74/68
f 34/41/69 51/44/71 52/55/72 38/54/70
f 38/54/70 52/55/72 53/7/73 7/10/74
f 39/74/68 38/76/70 7/77/74 10/78/75
f 40/71/66 39/74/68 10/78/75 13/79/76
f 41/72/63 40/71/66 13/79/76 16/80/77
f 42/25/64 41/51/63 16/20/77 19/23/78
s 3
f 19/109/79 20/110/80 43/104/26 42/103/25
f 20/110/80 21/111/81 44/107/29 43/104/26
s 5
f 45/46/52 44/29/51 21/24/82 18/21/83
f 46/47/54 45/46/52 18/21/83 15/18/84
f 47/48/56 46/47/54 15/18/84 12/15/85
f 48/49/58 47/48/56 12/15/85 9/12/86
f 56/50/60 48/49/58 9/12/86 55/11/87
s 1
f 50/26/3 49/102/6 6/112/88 5/113/89
f 37/57/4 50/26/3 5/113/89 4/114/90
s off
f 67/81/91 68/82/92 69/83/93 70/84/94
s 6
f 53/7/73 52/55/72 60/63/95 61/64/96
s 2
f 61/95/97 62/96/98 54/9/8 53/8/7
f 62/96/98 63/97/99 55/16/11 54/9/8
s 5
f 64/67/100 56/50/60 55/11/87 63/66/101
f 65/68/102 57/45/59 56/50/60 64/67/100
s 4
f 58/43/46 57/45/48 65/68/103 66/69/104
f 51/44/47 58/43/46 66/69/104 59/70/105
s 6
f 59/70/106 1/1/107 37/4/108 60/63/95
f 61/64/96 60/63/95 37/4/108 4/58/109
s 2
f 4/98/110 5/99/111 62/96/98 61/95/97
f 5/99/111 6/100/112 63/97/99 62/96/98
s 5
f 49/6/113 64/67/100 63/66/101 6/56/114
f 3/5/115 65/68/102 64/67/100 49/6/113
s 4
f 66/69/104 65/68/103 3/5/116 2/2/117
f 59/70/105 66/69/104 2/2/117 1/1/118
s off
f 51/44/119 59/70/120 68/60/121 67/59/122
f 59/61/123 60/62/124 69/115/125 68/116/126
f 60/62/127 52/117/128 70/118/129 69/115/130
f 52/117/131 51/119/132 67/120/133 70/118/134
