# This file uses centimeters as units for non-parametric coordinates.

mtllib elevator.mtl
g default
v -110.457114 -355.677777 -45.527853
v 136.641915 -355.677777 -45.522200
v -110.457114 -345.345227 -45.527853
v 136.641915 -345.345227 -45.522200
v -110.457114 -345.345227 -85.103285
v 136.641915 -345.345227 -85.097654
v -110.457114 -345.345227 -105.952421
v 136.641915 -345.345227 -105.946791
v -110.457114 -345.345227 -145.527891
v 136.641915 -345.345227 -145.522215
v -110.457114 -355.677777 -145.527891
v 136.641915 -355.677777 -145.522215
v -110.457114 -355.677777 -105.952421
v 97.285012 -355.677777 -105.947660
v -110.457114 -355.677777 -85.103285
v 97.285012 -355.677777 -85.098524
v 178.277596 -395.767530 -105.945829
v 178.277596 -395.767530 -85.096693
v 178.277596 -345.345227 -105.945829
v 178.277596 -345.345227 -85.096693
v -110.457114 -345.345227 -138.473127
v -110.457114 -355.677777 -138.473127
v 129.626115 -355.677777 -138.467634
v 136.641915 -345.345227 -138.467451
v -110.457114 -345.345227 -50.727743
v -110.457114 -355.677777 -50.727743
v 131.470742 -355.677777 -50.722227
v 136.641915 -345.345227 -50.722090
v -104.687644 -345.345227 -45.527739
v -104.687644 -345.345227 -50.727629
v -104.687644 -345.345227 -85.103148
v -104.687644 -345.345227 -105.952284
v -104.687644 -345.345227 -138.472944
v -104.687644 -345.345227 -145.527708
v -104.687644 -355.677777 -145.527708
v -104.837562 -355.677777 -138.472944
v -105.528648 -355.677777 -105.952330
v -105.528648 -355.677777 -85.103193
v -104.798148 -355.677777 -50.727629
v -104.687644 -355.677777 -45.527739
v 129.791024 -345.345227 -45.522360
v 129.791024 -345.345227 -50.722250
v 129.791024 -345.345227 -85.097792
v 129.791024 -345.345227 -105.946928
v 129.791024 -345.345227 -138.467634
v 129.791024 -345.345227 -145.522398
v 129.791024 -355.677777 -145.522398
v 122.953233 -355.677777 -138.467726
v 91.432748 -355.677777 -105.947798
v 91.432748 -355.677777 -85.098661
v 124.751061 -355.677777 -50.722364
v 129.791024 -355.677777 -45.522360
v -110.457114 -291.899426 -45.527853
v -104.687644 -291.899426 -45.527739
v -104.687644 -291.899426 -50.727629
v -110.457114 -291.899426 -50.727743
v -104.687644 -291.899426 -138.472944
v -110.457114 -291.899426 -138.473127
v -104.687644 -291.899426 -145.527708
v -110.457114 -291.899426 -145.527891
v 129.791024 -291.899426 -45.522360
v 136.641915 -291.899426 -45.522200
v 136.641915 -291.899426 -50.722090
v 129.791024 -291.899426 -50.722250
v 129.791024 -291.899426 -138.467634
v 129.791024 -291.899426 -145.522398
v 136.641915 -291.899426 -138.467451
v 136.641915 -291.899426 -145.522215
v -110.457114 -298.561414 -138.473127
v -110.457114 -298.561414 -145.527891
v -104.687644 -298.561414 -145.527708
v -104.687644 -298.561414 -138.472944
v -104.687644 -298.630170 -50.727629
v -110.457114 -298.630170 -50.727743
v 129.791024 -298.521588 -145.522398
v 129.791024 -298.521588 -138.467634
v -110.457114 -298.630170 -45.527853
v -104.687644 -298.630170 -45.527739
v 136.641915 -298.521588 -145.522215
v 136.641915 -298.521588 -138.467451
v 136.641915 -298.392407 -50.722090
v 129.791024 -298.392407 -50.722250
v 136.641915 -298.392407 -45.522200
v 129.791024 -298.392407 -45.522360
vt 0.066145 0.722147
vt 0.077979 0.722147
vt 0.077979 0.722147
vt 0.618740 0.130066
vt 0.120260 0.447081
vt 0.129633 0.447081
vt 0.129633 0.459172
vt 0.120260 0.459172
vt 0.066145 0.823486
vt 0.077979 0.823486
vt 0.077979 0.876873
vt 0.066145 0.876873
vt 0.077979 0.960146
vt 0.066145 0.960146
vt 0.625882 0.130066
vt 0.077979 0.978211
vt 0.077979 0.978211
vt 0.066145 0.978211
vt 0.066145 0.960146
vt 0.077671 0.960146
vt 0.076254 0.876873
vt 0.066145 0.876873
vt 0.076254 0.823486
vt 0.066145 0.823486
vt 0.066145 0.735462
vt 0.077752 0.735462
vt 0.492253 0.876873
vt 0.558590 0.960146
vt 0.572980 0.960146
vt 0.572980 0.876873
vt 0.658381 0.823486
vt 0.658381 0.876873
vt 0.658381 0.876873
vt 0.658381 0.823486
vt 0.572980 0.722147
vt 0.562373 0.735462
vt 0.572980 0.735462
vt 0.572980 0.722147
vt 0.066145 0.735462
vt 0.492253 0.823486
vt 0.572980 0.823486
vt 0.572980 0.978211
vt 0.572980 0.978211
vt 0.120260 0.663209
vt 0.129633 0.663209
vt 0.129633 0.679613
vt 0.120260 0.679614
vt 0.077979 0.735462
vt 0.558928 0.722147
vt 0.558928 0.735462
vt 0.558928 0.823486
vt 0.558928 0.876873
vt 0.558928 0.960146
vt 0.558928 0.978211
vt 0.558928 0.978211
vt 0.544903 0.960146
vt 0.480250 0.876873
vt 0.480250 0.823486
vt 0.548590 0.735462
vt 0.558928 0.722147
vt 0.510585 0.447072
vt 0.572980 0.722147
vt 0.572980 0.735462
vt 0.521715 0.447072
vt 0.521715 0.459164
vt 0.510585 0.459164
vt 0.572980 0.960146
vt 0.572980 0.978211
vt 0.625882 0.152468
vt 0.618740 0.152468
vt 0.510585 0.679605
vt 0.510585 0.663200
vt 0.116397 0.444032
vt 0.132049 0.444032
vt 0.521715 0.663200
vt 0.618740 0.152468
vt 0.572980 0.722147
vt 0.625882 0.152468
vt 0.572980 0.735462
vt 0.521715 0.679605
vt 0.120260 0.663209
vt 0.129633 0.663209
vt 0.572980 0.960146
vt 0.572980 0.978211
vt 0.390672 0.141146
vt 0.273253 0.141146
vt 0.273253 0.168297
vt 0.390672 0.168297
vt 0.197975 0.141146
vt 0.197975 0.168297
vt 0.073859 0.141146
vt 0.055084 0.141146
vt 0.055084 0.168297
vt 0.073859 0.168297
vt 0.197972 0.141146
vt 0.273250 0.141146
vt 0.273249 0.035803
vt 0.197971 0.035803
vt 0.416144 0.141146
vt 0.416144 0.168297
vt 0.055084 0.168297
vt 0.073859 0.168297
vt 0.073859 0.291050
vt 0.055084 0.291050
vt 0.055084 0.291050
vt 0.073859 0.291050
vt 0.390672 0.168297
vt 0.416144 0.168297
vt 0.416144 0.291231
vt 0.390672 0.291231
vt 0.390672 0.291231
vt 0.416144 0.291231
vt 0.073855 0.168297
vt 0.055081 0.168297
vt 0.055081 0.291675
vt 0.073855 0.291675
vt 0.416141 0.168297
vt 0.390669 0.168297
vt 0.390669 0.291336
vt 0.416141 0.291336
vt 0.390672 0.308737
vt 0.416144 0.308737
vt 0.390672 0.308737
vt 0.073859 0.308737
vt 0.073859 0.308737
vt 0.055084 0.308737
vt 0.055084 0.308737
vt 0.390669 0.308737
vt 0.073855 0.308737
vt 0.055081 0.308737
vt 0.625882 0.130066
vt 0.618740 0.130066
vt 0.875880 0.130066
vt 0.924596 0.152468
vt 0.976132 0.152468
vt 0.976132 0.043147
vt 0.924596 0.152468
vt 0.875880 0.130066
vt 0.976132 0.043147
vt 0.976132 0.152468
vt 0.924596 0.152468
vt 0.915912 0.130066
vt 0.924596 0.130066
vt 0.924596 0.152468
vt 0.916116 0.152468
vt 0.916116 0.130066
vt 0.916116 0.130066
vt 0.916116 0.152468
vt 0.924596 0.130066
vt 0.924596 0.152468
vt 0.625882 0.253751
vt 0.618740 0.253751
vt 0.625882 0.152468
vt 0.618740 0.152468
vt 0.618740 0.253751
vt 0.625882 0.253751
vt 0.618740 0.253900
vt 0.625882 0.253900
vt 0.924596 0.254267
vt 0.916116 0.254267
vt 0.924596 0.152468
vt 0.916116 0.152468
vt 0.916116 0.254267
vt 0.924596 0.254267
vt 0.916116 0.152468
vt 0.924596 0.253987
vt 0.916116 0.253987
vt 0.916116 0.253987
vt 0.924596 0.253987
vt 0.618740 0.268344
vt 0.625882 0.268344
vt 0.916116 0.268344
vt 0.625882 0.268344
vt 0.625882 0.253900
vt 0.916116 0.268344
vt 0.625882 0.268344
vt 0.618740 0.268344
vt 0.924596 0.268344
vt 0.924596 0.268344
vt 0.916116 0.268344
vt 0.129633 0.459172
vt 0.120260 0.459172
vt 0.129633 0.679613
vt 0.510585 0.679605
vt 0.510585 0.663200
vt 0.521715 0.663200
vt 0.521715 0.459164
vt 0.510585 0.459164
vt 0.132049 0.674917
vt 0.116397 0.674917
vn -0.000019 0.000000 1.000000
vn -0.000021 0.000000 1.000000
vn -0.000021 0.000000 1.000000
vn -0.000019 0.000000 1.000000
vn 0.000000 1.000000 0.000000
vn 0.000000 1.000000 0.000000
vn 0.000000 1.000000 0.000000
vn 0.000000 1.000000 0.000000
vn 0.000000 1.000000 0.000000
vn 0.000000 1.000000 0.000000
vn 0.000000 1.000000 0.000000
vn 0.000000 1.000000 0.000000
vn 0.000000 1.000000 0.000000
vn 0.000000 1.000000 0.000000
vn 0.000032 0.000000 -1.000000
vn 0.000027 0.000000 -1.000000
vn 0.000027 0.000000 -1.000000
vn 0.000032 0.000000 -1.000000
vn 0.000000 -1.000000 0.000000
vn 0.000000 -1.000000 0.000000
vn 0.000000 -1.000000 0.000000
vn 0.000000 -1.000000 0.000000
vn 0.000000 -1.000000 0.000000
vn 0.000000 -1.000000 0.000000
vn 0.000000 -1.000000 0.000000
vn 0.000000 -1.000000 0.000000
vn 0.000000 -1.000000 0.000000
vn 0.000000 -1.000000 0.000000
vn 0.398950 -0.895258 0.198376
vn 0.398950 -0.895258 0.198376
vn 0.398950 -0.895258 0.198376
vn 0.398950 -0.895258 0.198376
vn 1.000000 0.000000 0.000000
vn 1.000000 0.000000 0.000000
vn 1.000000 0.000000 0.000000
vn 1.000000 0.000000 0.000000
vn 0.873752 -0.218642 -0.434457
vn 0.873752 -0.218642 -0.434457
vn 0.873752 -0.218642 -0.434457
vn 0.873752 -0.218642 -0.434457
vn -1.000000 0.000000 0.000000
vn -1.000000 0.000000 0.000000
vn -1.000000 0.000000 0.000000
vn -1.000000 0.000000 0.000000
vn -1.000000 0.000000 0.000000
vn -1.000000 0.000000 0.000000
vn -1.000000 0.000000 0.000000
vn -1.000000 0.000000 0.000000
vn -1.000000 0.000000 0.000000
vn -1.000000 0.000000 0.000000
vn -0.443611 -0.896219 0.000000
vn -0.443611 -0.896219 0.000000
vn -0.443611 -0.896219 0.000000
vn -0.443611 -0.896219 0.000000
vn 0.000023 -0.000000 -1.000000
vn 0.000023 -0.000000 -1.000000
vn 0.000023 -0.000000 -1.000000
vn 0.000023 -0.000000 -1.000000
vn 0.000000 1.000000 0.000000
vn 0.000000 1.000000 0.000000
vn 0.000000 1.000000 0.000000
vn 0.000000 1.000000 0.000000
vn -0.000023 0.000000 1.000000
vn -0.000023 0.000000 1.000000
vn -0.000023 0.000000 1.000000
vn -0.000023 0.000000 1.000000
vn -1.000000 0.000000 0.000000
vn -1.000000 0.000000 0.000000
vn 0.000000 -1.000000 0.000000
vn 0.000000 -1.000000 0.000000
vn 0.856701 -0.290855 0.425990
vn 0.856701 -0.290855 0.425990
vn 0.856701 -0.290855 0.425990
vn 0.856701 -0.290855 0.425990
vn 0.000000 1.000000 0.000000
vn 0.000000 1.000000 0.000000
vn 0.000000 1.000000 0.000000
vn 0.000000 1.000000 0.000000
vn 0.412040 -0.887833 -0.204880
vn 0.412040 -0.887833 -0.204880
vn 0.412040 -0.887833 -0.204880
vn 0.412040 -0.887833 -0.204880
vn 0.000000 1.000000 0.000000
vn 0.000000 1.000000 0.000000
vn 0.000000 1.000000 0.000000
vn 0.000000 1.000000 0.000000
vn 0.000000 1.000000 0.000000
vn 0.000000 1.000000 0.000000
vn 0.000000 1.000000 0.000000
vn 0.000000 1.000000 0.000000
vn 0.000000 1.000000 0.000000
vn 0.000000 1.000000 0.000000
vn 0.000025 0.000000 -1.000000
vn 0.000025 0.000000 -1.000000
vn 0.000000 -1.000000 0.000000
vn 0.000000 -1.000000 0.000000
vn 0.000000 -1.000000 0.000000
vn 0.000000 -1.000000 0.000000
vn 0.000000 -1.000000 0.000000
vn 0.000000 -1.000000 0.000000
vn -0.000023 0.000000 1.000000
vn -0.000023 0.000000 1.000000
vn 0.000000 1.000000 0.000000
vn 0.000000 1.000000 0.000000
vn 0.000000 1.000000 0.000000
vn 0.000000 1.000000 0.000000
vn 0.000000 1.000000 0.000000
vn 0.000000 1.000000 0.000000
vn 0.000000 1.000000 0.000000
vn 0.000000 1.000000 0.000000
vn 0.000000 1.000000 0.000000
vn 0.000000 1.000000 0.000000
vn 0.000000 1.000000 0.000000
vn 0.000000 1.000000 0.000000
vn 0.000027 0.000000 -1.000000
vn 0.000027 0.000000 -1.000000
vn 0.000000 -1.000000 0.000000
vn 0.000000 -1.000000 0.000000
vn 0.000000 -1.000000 0.000000
vn 0.000000 -1.000000 0.000000
vn 0.000000 -1.000000 0.000000
vn 0.000000 -1.000000 0.000000
vn -0.000023 0.000000 1.000000
vn -0.000023 0.000000 1.000000
vn -0.000020 0.000000 1.000000
vn -0.000020 0.000000 1.000000
vn -0.000020 0.000000 1.000000
vn -0.000020 0.000000 1.000000
vn 1.000000 0.000000 0.000000
vn 1.000000 0.000000 0.000000
vn 1.000000 0.000000 0.000000
vn 1.000000 0.000000 0.000000
vn 0.000020 0.000000 -1.000000
vn 0.000020 0.000000 -1.000000
vn 0.000020 0.000000 -1.000000
vn 0.000020 0.000000 -1.000000
vn -1.000000 0.000000 0.000000
vn -1.000000 0.000000 0.000000
vn -1.000000 0.000000 0.000000
vn -1.000000 0.000000 0.000000
vn -0.000032 0.000000 1.000000
vn -0.000032 0.000000 1.000000
vn -0.000032 0.000000 1.000000
vn -0.000032 0.000000 1.000000
vn 1.000000 0.000000 0.000000
vn 1.000000 0.000000 0.000000
vn 1.000000 0.000000 0.000000
vn 1.000000 0.000000 0.000000
vn 0.000032 0.000000 -1.000000
vn 0.000032 0.000000 -1.000000
vn 0.000032 0.000000 -1.000000
vn 0.000032 0.000000 -1.000000
vn -1.000000 0.000000 0.000000
vn -1.000000 0.000000 0.000000
vn -1.000000 0.000000 0.000000
vn -1.000000 0.000000 0.000000
vn -0.000024 0.000000 1.000000
vn -0.000024 0.000000 1.000000
vn -0.000023 0.000000 1.000000
vn -0.000023 0.000000 1.000000
vn 1.000000 0.000000 0.000000
vn 1.000000 0.000000 0.000000
vn 1.000000 0.000000 0.000000
vn 1.000000 0.000000 0.000000
vn 0.000024 0.000000 -1.000000
vn 0.000024 0.000000 -1.000000
vn 0.000024 0.000000 -1.000000
vn 0.000024 0.000000 -1.000000
vn -1.000000 0.000000 0.000000
vn -1.000000 0.000000 0.000000
vn -1.000000 0.000000 0.000000
vn -1.000000 0.000000 0.000000
vn -1.000000 0.000000 0.000000
vn -1.000000 0.000000 0.000000
vn -1.000000 0.000000 0.000000
vn -1.000000 0.000000 0.000000
vn -0.000027 0.000000 1.000000
vn -0.000027 0.000000 1.000000
vn -0.000027 0.000000 1.000000
vn -0.000027 0.000000 1.000000
vn 1.000000 0.000000 0.000000
vn 1.000000 0.000000 0.000000
vn 1.000000 0.000000 0.000000
vn 1.000000 0.000000 0.000000
vn 0.000027 0.000000 -1.000000
vn 0.000027 0.000000 -1.000000
vn 0.000027 0.000000 -1.000000
vn 0.000027 0.000000 -1.000000
vn -1.000000 0.000000 0.000000
vn -1.000000 0.000000 0.000000
vn 0.000032 0.000000 -1.000000
vn 0.000032 0.000000 -1.000000
vn 0.000000 -1.000000 -0.000784
vn 0.000000 -1.000000 -0.000784
vn 0.000000 -1.000000 -0.000784
vn 0.000000 -1.000000 -0.000784
vn 1.000000 0.000000 0.000000
vn 1.000000 0.000000 0.000000
vn 1.000000 0.000000 0.000000
vn 1.000000 0.000000 0.000000
vn 0.000000 1.000000 0.000000
vn 0.000000 1.000000 0.000000
vn 0.000000 1.000000 0.000000
vn 0.000000 1.000000 0.000000
vn -1.000000 0.000000 0.000000
vn -1.000000 0.000000 0.000000
vn -1.000000 0.000000 0.000000
vn -1.000000 0.000000 0.000000
vn 0.000170 -1.000000 0.000000
vn 0.000170 -1.000000 0.000000
vn 0.000170 -1.000000 0.000000
vn 0.000170 -1.000000 0.000000
vn 0.000023 0.000000 -1.000000
vn 0.000023 0.000000 -1.000000
vn 0.000023 0.000000 -1.000000
vn 0.000023 0.000000 -1.000000
vn 0.000000 1.000000 0.000000
vn 0.000000 1.000000 0.000000
vn 0.000000 1.000000 0.000000
vn 0.000000 1.000000 0.000000
vn -0.000023 0.000000 1.000000
vn -0.000023 0.000000 1.000000
vn -0.000023 0.000000 1.000000
vn -0.000023 0.000000 1.000000
vn -1.000000 0.000000 0.000000
vn -1.000000 0.000000 0.000000
vn 1.000000 0.000000 0.000000
vn 1.000000 0.000000 0.000000
vn -0.000020 0.000000 1.000000
vn -0.000020 0.000000 1.000000
vn 0.000027 0.000000 -1.000000
vn 0.000027 0.000000 -1.000000
vn 1.000000 0.000000 0.000000
vn 1.000000 0.000000 0.000000
vn -0.000000 -0.999999 0.001472
vn -0.000000 -0.999999 0.001472
vn -0.000000 -0.999999 0.001472
vn -0.000000 -0.999999 0.001472
vn 1.000000 0.000000 0.000000
vn 1.000000 0.000000 0.000000
vn 1.000000 0.000000 0.000000
vn 1.000000 0.000000 0.000000
vn 0.000000 1.000000 0.000000
vn 0.000000 1.000000 0.000000
vn 0.000000 1.000000 0.000000
vn 0.000000 1.000000 0.000000
vn -1.000000 0.000000 0.000000
vn -1.000000 0.000000 0.000000
vn -1.000000 0.000000 0.000000
vn -1.000000 0.000000 0.000000
vn 1.000000 0.000000 0.000000
vn 1.000000 0.000000 0.000000
vn -0.000023 0.000000 1.000000
vn -0.000023 0.000000 1.000000
vn -1.000000 0.000000 0.000000
vn -1.000000 0.000000 0.000000
s 1
g elevator
usemtl lambert4SG
f 1/4/1 40/15/2 29/69/3 3/70/4
s off
f 53/5/5 54/6/6 55/7/7 56/8/8
s 2
f 5/9/9 31/10/10 32/11/11 7/12/12
f 7/12/12 32/11/11 33/13/13 21/14/14
s 3
f 9/76/15 34/78/16 35/131/17 11/132/18
s 4
f 22/19/19 36/20/20 37/21/21 13/22/22
f 13/22/22 37/21/21 38/23/23 15/24/24
f 26/25/25 39/26/26 40/2/27 1/1/28
s off
f 14/27/29 23/28/30 24/29/31 8/30/32
f 18/31/33 17/32/34 19/33/35 20/34/36
f 2/35/37 27/36/38 28/37/39 4/38/40
s 5
f 22/85/41 13/86/42 7/87/43 21/88/44
f 13/86/42 15/89/45 5/90/46 7/87/43
f 26/91/47 1/92/48 3/93/49 25/94/50
s off
f 16/95/51 14/96/52 17/97/53 18/98/54
f 14/133/55 8/134/56 19/135/57 17/136/58
f 8/30/59 6/41/60 20/34/61 19/33/62
f 6/137/63 16/138/64 18/139/65 20/140/66
s 5
f 11/99/67 22/85/41 21/88/44 9/100/68
s 4
f 11/18/69 35/17/70 36/20/20 22/19/19
s off
f 24/141/71 23/142/72 12/143/73 10/144/74
f 58/44/75 57/45/76 59/46/77 60/47/78
s 5
f 15/89/45 26/91/47 25/94/50 5/90/46
s 4
f 15/24/24 38/23/23 39/26/26 26/25/25
s off
f 28/37/79 27/36/80 16/40/81 6/41/82
s 2
f 25/39/83 30/48/84 31/10/10 5/9/9
f 29/3/85 41/49/86 42/50/87 30/48/84
f 31/10/10 30/48/84 42/50/87 43/51/88
f 32/11/11 31/10/10 43/51/88 44/52/89
f 33/13/13 32/11/11 44/52/89 45/53/90
f 34/16/91 33/13/13 45/53/90 46/54/92
s 3
f 35/131/17 34/78/16 46/145/93 47/146/94
s 4
f 36/20/20 35/17/70 47/55/95 48/56/96
f 37/21/21 36/20/20 48/56/96 49/57/97
f 38/23/23 37/21/21 49/57/97 50/58/98
f 39/26/26 38/23/23 50/58/98 51/59/99
f 40/2/27 39/26/26 51/59/99 52/60/100
s 1
f 29/69/3 40/15/2 52/147/101 41/148/102
s off
f 61/61/103 62/64/104 63/65/105 64/66/106
s 2
f 43/51/88 42/50/87 28/37/107 6/41/108
f 44/52/89 43/51/88 6/41/108 8/30/109
f 45/53/90 44/52/89 8/30/109 24/29/110
s off
f 66/71/111 65/72/112 67/75/113 68/80/114
s 3
f 47/146/94 46/145/93 10/144/115 12/143/116
s 4
f 48/56/96 47/55/95 12/42/117 23/28/118
f 49/57/97 48/56/96 23/28/118 14/27/119
f 50/58/98 49/57/97 14/27/119 16/40/120
f 51/59/99 50/58/98 16/40/120 27/36/121
f 52/60/100 51/59/99 27/36/121 2/35/122
s 1
f 41/148/102 52/147/101 2/149/123 4/150/124
s 6
f 3/70/125 29/69/126 78/151/127 77/152/128
s 7
f 29/101/129 30/102/130 73/103/131 78/104/132
s off
f 30/153/133 25/154/134 74/155/135 73/156/136
s 8
f 25/94/137 3/93/138 77/105/139 74/106/140
s off
f 21/73/141 33/74/142 72/189/143 69/190/144
f 33/107/145 34/108/146 71/109/147 72/110/148
s 9
f 34/78/149 9/76/150 70/157/151 71/158/152
s 10
f 9/100/153 21/88/154 69/111/155 70/112/156
s 11
f 41/148/157 4/150/158 83/159/159 84/160/160
s 12
f 4/38/161 28/37/162 81/79/163 83/77/164
s off
f 28/161/165 42/162/166 82/163/167 81/164/168
s 13
f 42/113/169 41/114/170 84/115/171 82/116/172
s off
f 46/117/173 45/118/174 76/119/175 75/120/176
f 45/165/177 24/141/178 80/166/179 76/167/180
s 14
f 24/29/181 10/43/182 79/84/183 80/83/184
s 15
f 10/144/185 46/145/186 75/168/187 79/169/188
s 10
f 70/112/156 69/111/155 58/121/189 60/122/190
s 9
f 71/158/152 70/157/151 60/170/191 59/171/192
s off
f 69/81/193 72/82/194 73/181/195 74/182/196
f 72/110/197 57/123/198 55/124/199 73/103/200
f 57/45/201 58/44/202 56/8/203 55/7/204
f 58/121/205 69/111/206 74/106/207 56/125/208
f 72/82/209 71/183/210 75/184/211 76/185/212
f 71/158/213 59/171/214 66/172/215 75/168/216
f 59/46/217 57/45/218 65/72/219 66/71/220
f 57/173/221 72/174/222 76/167/223 65/175/224
s 8
f 74/106/140 77/105/139 53/126/225 56/125/226
s 7
f 78/104/132 73/103/131 55/124/227 54/127/228
s 6
f 77/152/128 78/151/127 54/176/229 53/177/230
s 15
f 79/169/188 75/168/187 66/172/231 68/178/232
s 14
f 80/83/184 79/84/183 68/68/233 67/67/234
s off
f 76/185/235 80/186/236 81/187/237 82/188/238
f 80/83/239 67/67/240 63/63/241 81/79/242
f 67/75/243 65/72/244 64/66/245 63/65/246
f 65/128/247 76/119/248 82/116/249 64/129/250
s 12
f 83/77/164 81/79/163 63/63/251 62/62/252
s 11
f 84/160/160 83/159/159 62/179/253 61/180/254
s 13
f 82/116/172 84/115/171 61/130/255 64/129/256
