# This file uses centimeters as units for non-parametric coordinates.

mtllib pixelHeart.mtl
g default
v -0.500000 -4.500000 0.000000
v 0.500000 -4.500000 0.000000
v -1.500000 -3.500000 0.000000
v -0.500000 -3.500000 0.000000
v 0.500000 -3.500000 0.000000
v 1.500000 -3.500000 0.000000
v -2.500000 -2.500000 0.000000
v -1.500000 -2.500000 0.000000
v -0.500000 -2.500000 0.000000
v 0.500000 -2.500000 0.000000
v 1.500000 -2.500000 0.000000
v 2.500000 -2.500000 0.000000
v -3.500000 -1.500000 0.000000
v -2.500000 -1.500000 0.000000
v -1.500000 -1.500000 0.000000
v -0.500000 -1.500000 0.000000
v 0.500000 -1.500000 0.000000
v 1.500000 -1.500000 0.000000
v 2.500000 -1.500000 0.000000
v 3.500000 -1.500000 0.000000
v -4.500000 -0.500000 0.000000
v -3.500000 -0.500000 0.000000
v -2.500000 -0.500000 0.000000
v -1.500000 -0.500000 0.000000
v -0.500000 -0.500000 0.000000
v 0.500000 -0.500000 0.000000
v 1.500000 -0.500000 0.000000
v 2.500000 -0.500000 0.000000
v 3.500000 -0.500000 0.000000
v 4.500000 -0.500000 0.000000
v -4.500000 0.500000 0.000000
v -3.500000 0.500000 0.000000
v -2.500000 0.500000 0.000000
v -1.500000 0.500000 0.000000
v -0.500000 0.500000 0.000000
v 0.500000 0.500000 0.000000
v 1.500000 0.500000 0.000000
v 2.500000 0.500000 0.000000
v 3.500000 0.500000 0.000000
v 4.500000 0.500000 0.000000
v -4.500000 1.500000 0.000000
v -3.500000 1.500000 0.000000
v -2.500000 1.500000 0.000000
v -1.500000 1.500000 0.000000
v -0.500000 1.500000 0.000000
v 0.500000 1.500000 0.000000
v 1.500000 1.500000 0.000000
v 2.500000 1.500000 0.000000
v 3.500000 1.500000 0.000000
v 4.500000 1.500000 0.000000
v -4.500000 2.500000 0.000000
v -3.500000 2.500000 0.000000
v -2.500000 2.500000 0.000000
v -1.500000 2.500000 0.000000
v -0.500000 2.500000 0.000000
v 0.500000 2.500000 0.000000
v 1.500000 2.500000 0.000000
v 2.500000 2.500000 0.000000
v 3.500000 2.500000 0.000000
v 4.500000 2.500000 0.000000
v -3.500000 3.500000 0.000000
v -2.500000 3.500000 0.000000
v -1.500000 3.500000 0.000000
v -0.500000 3.500000 0.000000
v 0.500000 3.500000 0.000000
v 1.500000 3.500000 0.000000
v 2.500000 3.500000 0.000000
v 3.500000 3.500000 0.000000
v -2.500000 4.500000 0.000000
v -1.500000 4.500000 0.000000
v -0.500000 4.500000 0.000000
v 0.500000 4.500000 0.000000
v 1.500000 4.500000 0.000000
v 2.500000 4.500000 0.000000
v -0.500000 -4.500000 1.219463
v 0.500000 -4.500000 1.219463
v 0.500000 -3.500000 1.219463
v -0.500000 -3.500000 1.219463
v -1.500000 -3.500000 1.219463
v -0.500000 -2.500000 1.219463
v -1.500000 -2.500000 1.219463
v 0.500000 -2.500000 1.219463
v 1.500000 -3.500000 1.219463
v 1.500000 -2.500000 1.219463
v -2.500000 -2.500000 1.219463
v -1.500000 -1.500000 1.219463
v -2.500000 -1.500000 1.219463
v -0.500000 -1.500000 1.219463
v 0.500000 -1.500000 1.219463
v 1.500000 -1.500000 1.219463
v 2.500000 -2.500000 1.219463
v 2.500000 -1.500000 1.219463
v -3.500000 -1.500000 1.219463
v -2.500000 -0.500000 1.219463
v -3.500000 -0.500000 1.219463
v -1.500000 -0.500000 1.219463
v -0.500000 -0.500000 1.219463
v 0.500000 -0.500000 1.219463
v 1.500000 -0.500000 1.219463
v 2.500000 -0.500000 1.219463
v 3.500000 -1.500000 1.219463
v 3.500000 -0.500000 1.219463
v -4.500000 -0.500000 1.219463
v -3.500000 0.500000 1.219463
v -4.500000 0.500000 1.219463
v -2.500000 0.500000 1.219463
v -1.500000 0.500000 1.219463
v -0.500000 0.500000 1.219463
v 0.500000 0.500000 1.219463
v 1.500000 0.500000 1.219463
v 2.500000 0.500000 1.219463
v 3.500000 0.500000 1.219463
v 4.500000 -0.500000 1.219463
v 4.500000 0.500000 1.219463
v -3.500000 1.500000 1.219463
v -4.500000 1.500000 1.219463
v -2.500000 1.500000 1.219463
v -1.500000 1.500000 1.219463
v -0.500000 1.500000 1.219463
v 0.500000 1.500000 1.219463
v 1.500000 1.500000 1.219463
v 2.500000 1.500000 1.219463
v 3.500000 1.500000 1.219463
v 4.500000 1.500000 1.219463
v -3.500000 2.500000 1.219463
v -4.500000 2.500000 1.219463
v -2.500000 2.500000 1.219463
v -1.500000 2.500000 1.219463
v -0.500000 2.500000 1.219463
v 0.500000 2.500000 1.219463
v 1.500000 2.500000 1.219463
v 2.500000 2.500000 1.219463
v 3.500000 2.500000 1.219463
v 4.500000 2.500000 1.219463
v -2.500000 3.500000 1.219463
v -3.500000 3.500000 1.219463
v -1.500000 3.500000 1.219463
v -0.500000 3.500000 1.219463
v 0.500000 3.500000 1.219463
v 1.500000 3.500000 1.219463
v 2.500000 3.500000 1.219463
v 3.500000 3.500000 1.219463
v -1.500000 4.500000 1.219463
v -2.500000 4.500000 1.219463
v -0.500000 4.500000 1.219463
v 1.500000 4.500000 1.219463
v 0.500000 4.500000 1.219463
v 2.500000 4.500000 1.219463
vt 0.744834 0.905470
vt 0.744834 0.905470
vt 0.559659 0.905470
vt 0.559659 0.905470
vt 0.744834 0.915148
vt 0.559659 0.915148
vt 0.744834 0.915148
vt 0.559659 0.915148
vt 0.437298 0.247236
vt 0.544836 0.247236
vt 0.744834 0.915148
vt 0.559659 0.915148
vt 0.744834 0.924825
vt 0.559659 0.924825
vt 0.333333 0.356829
vt 0.437298 0.356829
vt 0.544836 0.356829
vt 0.654160 0.356829
vt 0.744834 0.915148
vt 0.559659 0.915148
vt 0.744834 0.924825
vt 0.559659 0.924825
vt 0.222222 0.465884
vt 0.333333 0.465884
vt 0.437298 0.465884
vt 0.544836 0.465884
vt 0.654160 0.465884
vt 0.759911 0.465884
vt 0.744834 0.924825
vt 0.559659 0.924825
vt 0.744834 0.934503
vt 0.123688 0.555556
vt 0.222222 0.555556
vt 0.333333 0.555556
vt 0.437298 0.555556
vt 0.544836 0.555556
vt 0.654160 0.555556
vt 0.759911 0.555556
vt 0.867234 0.555556
vt 0.559659 0.934503
vt 0.744834 0.924825
vt 0.123688 0.666667
vt 0.222222 0.666667
vt 0.333333 0.666667
vt 0.437298 0.666667
vt 0.544836 0.666667
vt 0.654160 0.666667
vt 0.759911 0.666667
vt 0.867234 0.666667
vt 0.559659 0.924825
vt 0.744834 0.934503
vt 0.559659 0.934503
vt 0.222222 0.777778
vt 0.333333 0.777778
vt 0.437298 0.777778
vt 0.544836 0.777778
vt 0.654160 0.777778
vt 0.759911 0.777778
vt 0.867234 0.777778
vt 0.744834 0.934503
vt 0.559659 0.934503
vt 0.744834 0.944181
vt 0.333333 0.888889
vt 0.432046 0.888889
vt 0.559659 0.944181
vt 0.654160 0.888889
vt 0.759911 0.888889
vt 0.744834 0.934503
vt 0.559659 0.934503
vt 0.744834 0.944181
vt 0.559659 0.944181
vt 0.744834 0.944181
vt 0.559659 0.944181
vt 0.744834 0.953858
vt 0.437298 0.032160
vt 0.544836 0.032160
vt 0.544836 0.139698
vt 0.437298 0.139698
vt 0.333333 0.139698
vt 0.437298 0.247236
vt 0.333333 0.247236
vt 0.544836 0.247236
vt 0.654160 0.139698
vt 0.654160 0.247236
vt 0.222222 0.247236
vt 0.333333 0.356829
vt 0.222222 0.356829
vt 0.437298 0.356829
vt 0.544836 0.356829
vt 0.654160 0.356829
vt 0.759911 0.247236
vt 0.759911 0.356829
vt 0.123688 0.356829
vt 0.222222 0.465884
vt 0.123688 0.465884
vt 0.333333 0.465884
vt 0.437298 0.465884
vt 0.544836 0.465884
vt 0.654160 0.465884
vt 0.759911 0.465884
vt 0.867234 0.356829
vt 0.867234 0.465884
vt 0.006772 0.465884
vt 0.123688 0.555556
vt 0.006772 0.555556
vt 0.222222 0.555556
vt 0.333333 0.555556
vt 0.437298 0.555556
vt 0.544836 0.555556
vt 0.654160 0.555556
vt 0.759911 0.555556
vt 0.867234 0.555556
vt 0.973200 0.465884
vt 0.973200 0.555556
vt 0.123688 0.666667
vt 0.006772 0.666667
vt 0.222222 0.666667
vt 0.333333 0.666667
vt 0.437298 0.666667
vt 0.544836 0.666667
vt 0.654160 0.666667
vt 0.759911 0.666667
vt 0.867234 0.666667
vt 0.973200 0.666667
vt 0.123688 0.777778
vt 0.006772 0.777778
vt 0.222222 0.777778
vt 0.333333 0.777778
vt 0.437298 0.777778
vt 0.544836 0.777778
vt 0.654160 0.777778
vt 0.759911 0.777778
vt 0.867234 0.777778
vt 0.973200 0.777778
vt 0.222222 0.888889
vt 0.123688 0.888889
vt 0.333333 0.888889
vt 0.432046 0.888889
vt 0.549037 0.888889
vt 0.654160 0.888889
vt 0.759911 0.888889
vt 0.867234 0.888889
vt 0.333333 0.995888
vt 0.222222 0.995888
vt 0.432046 0.995888
vt 0.654160 0.995888
vt 0.549037 0.995888
vt 0.759911 0.995888
vt 0.437298 0.032160
vt 0.544836 0.032160
vt 0.544836 0.139698
vt 0.437298 0.139698
vt 0.333333 0.139698
vt 0.333333 0.247236
vt 0.654160 0.139698
vt 0.654160 0.247236
vt 0.222222 0.247236
vt 0.222222 0.356829
vt 0.759911 0.247236
vt 0.759911 0.356829
vt 0.123688 0.356829
vt 0.123688 0.465884
vt 0.867234 0.356829
vt 0.867234 0.465884
vt 0.006772 0.465884
vt 0.006772 0.555556
vt 0.973200 0.465884
vt 0.973200 0.555556
vt 0.006772 0.666667
vt 0.973200 0.666667
vt 0.123688 0.777778
vt 0.006772 0.777778
vt 0.973200 0.777778
vt 0.867234 0.777778
vt 0.222222 0.888889
vt 0.123688 0.888889
vt 0.549037 0.888889
vt 0.432046 0.888889
vt 0.867234 0.888889
vt 0.759911 0.888889
vt 0.333333 0.995888
vt 0.222222 0.995888
vt 0.432046 0.995888
vt 0.654160 0.995888
vt 0.549037 0.995888
vt 0.759911 0.995888
vt 0.559659 0.953858
vt 0.744834 0.944181
vt 0.559659 0.944181
vt 0.744834 0.953858
vt 0.559659 0.953858
vt 0.744834 0.963536
vt 0.559659 0.963536
vt 0.744834 0.963536
vt 0.559659 0.963536
vt 0.744834 0.973214
vt 0.744834 0.973214
vt 0.559659 0.973214
vt 0.559659 0.973214
vt 0.744834 0.973214
vt 0.559659 0.973214
vt 0.744834 0.973214
vt 0.559659 0.973214
vt 0.744834 0.982891
vt 0.744834 0.982891
vt 0.559659 0.982891
vt 0.559659 0.982891
vt 0.744834 0.982891
vt 0.744834 0.982891
vt 0.559659 0.982891
vt 0.559659 0.982891
vt 0.744834 0.982891
vt 0.559659 0.982891
vt 0.744834 0.982891
vt 0.559659 0.982891
vt 0.744834 0.992569
vt 0.744834 0.992569
vt 0.559659 0.992569
vt 0.559659 0.992569
vt 0.744834 0.992569
vt 0.559659 0.992569
vt 0.744834 0.992569
vt 0.744834 0.992569
vt 0.559659 0.992569
vt 0.559659 0.992569
vt 0.744834 0.992569
vt 0.559659 0.992569
vn 0.000000 0.000000 1.000000
vn 0.000000 0.000000 1.000000
vn 0.000000 0.000000 1.000000
vn 0.000000 0.000000 1.000000
vn 0.000000 0.000000 1.000000
vn 0.000000 0.000000 1.000000
vn 0.000000 0.000000 1.000000
vn 0.000000 0.000000 1.000000
vn 0.000000 0.000000 1.000000
vn 0.000000 0.000000 1.000000
vn 0.000000 0.000000 1.000000
vn 0.000000 0.000000 1.000000
vn 0.000000 0.000000 1.000000
vn 0.000000 0.000000 1.000000
vn 0.000000 0.000000 1.000000
vn 0.000000 0.000000 1.000000
vn 0.000000 0.000000 1.000000
vn 0.000000 0.000000 1.000000
vn 0.000000 0.000000 1.000000
vn 0.000000 0.000000 1.000000
vn 0.000000 0.000000 1.000000
vn 0.000000 0.000000 1.000000
vn 0.000000 0.000000 1.000000
vn 0.000000 0.000000 1.000000
vn 0.000000 0.000000 1.000000
vn 0.000000 0.000000 1.000000
vn 0.000000 0.000000 1.000000
vn 0.000000 0.000000 1.000000
vn 0.000000 0.000000 1.000000
vn 0.000000 0.000000 1.000000
vn 0.000000 0.000000 1.000000
vn 0.000000 0.000000 1.000000
vn 0.000000 0.000000 1.000000
vn 0.000000 0.000000 1.000000
vn 0.000000 0.000000 1.000000
vn 0.000000 0.000000 1.000000
vn 0.000000 0.000000 1.000000
vn 0.000000 0.000000 1.000000
vn 0.000000 0.000000 1.000000
vn 0.000000 0.000000 1.000000
vn 0.000000 0.000000 1.000000
vn 0.000000 0.000000 1.000000
vn 0.000000 0.000000 1.000000
vn 0.000000 0.000000 1.000000
vn 0.000000 0.000000 1.000000
vn 0.000000 0.000000 1.000000
vn 0.000000 0.000000 1.000000
vn 0.000000 0.000000 1.000000
vn 0.000000 0.000000 1.000000
vn 0.000000 0.000000 1.000000
vn 0.000000 0.000000 1.000000
vn 0.000000 0.000000 1.000000
vn 0.000000 0.000000 1.000000
vn 0.000000 0.000000 1.000000
vn 0.000000 0.000000 1.000000
vn 0.000000 0.000000 1.000000
vn 0.000000 0.000000 1.000000
vn 0.000000 0.000000 1.000000
vn 0.000000 0.000000 1.000000
vn 0.000000 0.000000 1.000000
vn 0.000000 0.000000 1.000000
vn 0.000000 0.000000 1.000000
vn 0.000000 0.000000 1.000000
vn 0.000000 0.000000 1.000000
vn 0.000000 0.000000 1.000000
vn 0.000000 0.000000 1.000000
vn 0.000000 0.000000 1.000000
vn 0.000000 0.000000 1.000000
vn 0.000000 0.000000 1.000000
vn 0.000000 0.000000 1.000000
vn 0.000000 0.000000 1.000000
vn 0.000000 0.000000 1.000000
vn 0.000000 0.000000 1.000000
vn 0.000000 0.000000 1.000000
vn 0.000000 0.000000 -1.000000
vn 0.000000 0.000000 -1.000000
vn 0.000000 0.000000 -1.000000
vn 0.000000 0.000000 -1.000000
vn 0.000000 0.000000 -1.000000
vn 0.000000 0.000000 -1.000000
vn 0.000000 0.000000 -1.000000
vn 0.000000 0.000000 -1.000000
vn 0.000000 0.000000 -1.000000
vn 0.000000 0.000000 -1.000000
vn 0.000000 0.000000 -1.000000
vn 0.000000 0.000000 -1.000000
vn 0.000000 0.000000 -1.000000
vn 0.000000 0.000000 -1.000000
vn 0.000000 0.000000 -1.000000
vn 0.000000 0.000000 -1.000000
vn 0.000000 0.000000 -1.000000
vn 0.000000 0.000000 -1.000000
vn 0.000000 0.000000 -1.000000
vn 0.000000 0.000000 -1.000000
vn 0.000000 0.000000 -1.000000
vn 0.000000 0.000000 -1.000000
vn 0.000000 0.000000 -1.000000
vn 0.000000 0.000000 -1.000000
vn 0.000000 0.000000 -1.000000
vn 0.000000 0.000000 -1.000000
vn 0.000000 0.000000 -1.000000
vn 0.000000 0.000000 -1.000000
vn 0.000000 0.000000 -1.000000
vn 0.000000 0.000000 -1.000000
vn 0.000000 0.000000 -1.000000
vn 0.000000 0.000000 -1.000000
vn 0.000000 0.000000 -1.000000
vn 0.000000 0.000000 -1.000000
vn 0.000000 0.000000 -1.000000
vn 0.000000 0.000000 -1.000000
vn 0.000000 0.000000 -1.000000
vn 0.000000 0.000000 -1.000000
vn 0.000000 0.000000 -1.000000
vn 0.000000 0.000000 -1.000000
vn 0.000000 0.000000 -1.000000
vn 0.000000 0.000000 -1.000000
vn 0.000000 0.000000 -1.000000
vn 0.000000 0.000000 -1.000000
vn 0.000000 0.000000 -1.000000
vn 0.000000 0.000000 -1.000000
vn 0.000000 0.000000 -1.000000
vn 0.000000 0.000000 -1.000000
vn 0.000000 0.000000 -1.000000
vn 0.000000 0.000000 -1.000000
vn 0.000000 0.000000 -1.000000
vn 0.000000 0.000000 -1.000000
vn 0.000000 0.000000 -1.000000
vn 0.000000 0.000000 -1.000000
vn 0.000000 0.000000 -1.000000
vn 0.000000 0.000000 -1.000000
vn 0.000000 0.000000 -1.000000
vn 0.000000 0.000000 -1.000000
vn 0.000000 0.000000 -1.000000
vn 0.000000 0.000000 -1.000000
vn 0.000000 0.000000 -1.000000
vn 0.000000 0.000000 -1.000000
vn 0.000000 0.000000 -1.000000
vn 0.000000 0.000000 -1.000000
vn 0.000000 0.000000 -1.000000
vn 0.000000 0.000000 -1.000000
vn 0.000000 0.000000 -1.000000
vn 0.000000 0.000000 -1.000000
vn 0.000000 0.000000 -1.000000
vn 0.000000 0.000000 -1.000000
vn 0.000000 0.000000 -1.000000
vn 0.000000 0.000000 -1.000000
vn 0.000000 0.000000 -1.000000
vn 0.000000 0.000000 -1.000000
vn 0.000000 -1.000000 0.000000
vn 0.000000 -1.000000 0.000000
vn 0.000000 -1.000000 0.000000
vn 0.000000 -1.000000 0.000000
vn 1.000000 0.000000 0.000000
vn 1.000000 0.000000 0.000000
vn 1.000000 0.000000 0.000000
vn 1.000000 0.000000 0.000000
vn -1.000000 0.000000 0.000000
vn -1.000000 0.000000 0.000000
vn -1.000000 0.000000 0.000000
vn -1.000000 0.000000 0.000000
vn 0.000000 -1.000000 0.000000
vn 0.000000 -1.000000 0.000000
vn 0.000000 -1.000000 0.000000
vn 0.000000 -1.000000 0.000000
vn -1.000000 0.000000 0.000000
vn -1.000000 0.000000 0.000000
vn -1.000000 0.000000 0.000000
vn -1.000000 0.000000 0.000000
vn 0.000000 -1.000000 0.000000
vn 0.000000 -1.000000 0.000000
vn 0.000000 -1.000000 0.000000
vn 0.000000 -1.000000 0.000000
vn 1.000000 0.000000 0.000000
vn 1.000000 0.000000 0.000000
vn 1.000000 0.000000 0.000000
vn 1.000000 0.000000 0.000000
vn 0.000000 -1.000000 0.000000
vn 0.000000 -1.000000 0.000000
vn 0.000000 -1.000000 0.000000
vn 0.000000 -1.000000 0.000000
vn -1.000000 0.000000 0.000000
vn -1.000000 0.000000 0.000000
vn -1.000000 0.000000 0.000000
vn -1.000000 0.000000 0.000000
vn 0.000000 -1.000000 0.000000
vn 0.000000 -1.000000 0.000000
vn 0.000000 -1.000000 0.000000
vn 0.000000 -1.000000 0.000000
vn 1.000000 0.000000 0.000000
vn 1.000000 0.000000 0.000000
vn 1.000000 0.000000 0.000000
vn 1.000000 0.000000 0.000000
vn 0.000000 -1.000000 0.000000
vn 0.000000 -1.000000 0.000000
vn 0.000000 -1.000000 0.000000
vn 0.000000 -1.000000 0.000000
vn -1.000000 0.000000 0.000000
vn -1.000000 0.000000 0.000000
vn -1.000000 0.000000 0.000000
vn -1.000000 0.000000 0.000000
vn 0.000000 -1.000000 0.000000
vn 0.000000 -1.000000 0.000000
vn 0.000000 -1.000000 0.000000
vn 0.000000 -1.000000 0.000000
vn 1.000000 0.000000 0.000000
vn 1.000000 0.000000 0.000000
vn 1.000000 0.000000 0.000000
vn 1.000000 0.000000 0.000000
vn 0.000000 -1.000000 0.000000
vn 0.000000 -1.000000 0.000000
vn 0.000000 -1.000000 0.000000
vn 0.000000 -1.000000 0.000000
vn -1.000000 0.000000 0.000000
vn -1.000000 0.000000 0.000000
vn -1.000000 0.000000 0.000000
vn -1.000000 0.000000 0.000000
vn 0.000000 -1.000000 0.000000
vn 0.000000 -1.000000 0.000000
vn 0.000000 -1.000000 0.000000
vn 0.000000 -1.000000 0.000000
vn 1.000000 0.000000 0.000000
vn 1.000000 0.000000 0.000000
vn 1.000000 0.000000 0.000000
vn 1.000000 0.000000 0.000000
vn -1.000000 0.000000 0.000000
vn -1.000000 0.000000 0.000000
vn -1.000000 0.000000 0.000000
vn -1.000000 0.000000 0.000000
vn 1.000000 0.000000 0.000000
vn 1.000000 0.000000 0.000000
vn 1.000000 0.000000 0.000000
vn 1.000000 0.000000 0.000000
vn 0.000000 1.000000 0.000000
vn 0.000000 1.000000 0.000000
vn 0.000000 1.000000 0.000000
vn 0.000000 1.000000 0.000000
vn -1.000000 0.000000 0.000000
vn -1.000000 0.000000 0.000000
vn -1.000000 0.000000 0.000000
vn -1.000000 0.000000 0.000000
vn 1.000000 0.000000 0.000000
vn 1.000000 0.000000 0.000000
vn 1.000000 0.000000 0.000000
vn 1.000000 0.000000 0.000000
vn 0.000000 1.000000 0.000000
vn 0.000000 1.000000 0.000000
vn 0.000000 1.000000 0.000000
vn 0.000000 1.000000 0.000000
vn 0.000000 1.000000 0.000000
vn 0.000000 1.000000 0.000000
vn 0.000000 1.000000 0.000000
vn 0.000000 1.000000 0.000000
vn -1.000000 0.000000 0.000000
vn -1.000000 0.000000 0.000000
vn -1.000000 0.000000 0.000000
vn -1.000000 0.000000 0.000000
vn 0.000000 1.000000 0.000000
vn 0.000000 1.000000 0.000000
vn 0.000000 1.000000 0.000000
vn 0.000000 1.000000 0.000000
vn 1.000000 0.000000 0.000000
vn 1.000000 0.000000 0.000000
vn 1.000000 0.000000 0.000000
vn 1.000000 0.000000 0.000000
vn 0.000000 1.000000 0.000000
vn 0.000000 1.000000 0.000000
vn 0.000000 1.000000 0.000000
vn 0.000000 1.000000 0.000000
vn 0.000000 1.000000 0.000000
vn 0.000000 1.000000 0.000000
vn 0.000000 1.000000 0.000000
vn 0.000000 1.000000 0.000000
vn -1.000000 0.000000 0.000000
vn -1.000000 0.000000 0.000000
vn -1.000000 0.000000 0.000000
vn -1.000000 0.000000 0.000000
vn 1.000000 0.000000 0.000000
vn 1.000000 0.000000 0.000000
vn 1.000000 0.000000 0.000000
vn 1.000000 0.000000 0.000000
vn 0.000000 1.000000 0.000000
vn 0.000000 1.000000 0.000000
vn 0.000000 1.000000 0.000000
vn 0.000000 1.000000 0.000000
vn 0.000000 1.000000 0.000000
vn 0.000000 1.000000 0.000000
vn 0.000000 1.000000 0.000000
vn 0.000000 1.000000 0.000000
vn -1.000000 0.000000 0.000000
vn -1.000000 0.000000 0.000000
vn -1.000000 0.000000 0.000000
vn -1.000000 0.000000 0.000000
vn 1.000000 0.000000 0.000000
vn 1.000000 0.000000 0.000000
vn 1.000000 0.000000 0.000000
vn 1.000000 0.000000 0.000000
vn 0.000000 1.000000 0.000000
vn 0.000000 1.000000 0.000000
vn 0.000000 1.000000 0.000000
vn 0.000000 1.000000 0.000000
s 1
g pixelHeart
usemtl lambert2SG
f 75/149/1 76/150/2 77/151/3 78/152/4
f 79/153/5 78/152/4 80/9/6 81/154/7
f 78/152/4 77/151/3 82/10/8 80/9/6
f 77/151/3 83/155/9 84/156/10 82/10/8
f 85/157/11 81/154/7 86/15/12 87/158/13
f 81/154/7 80/9/6 88/16/14 86/15/12
f 80/9/6 82/10/8 89/17/15 88/16/14
f 82/10/8 84/156/10 90/18/16 89/17/15
f 84/156/10 91/159/17 92/160/18 90/18/16
f 93/161/19 87/158/13 94/23/20 95/162/21
f 87/158/13 86/15/12 96/24/22 94/23/20
f 86/15/12 88/16/14 97/25/23 96/24/22
f 88/16/14 89/17/15 98/26/24 97/25/23
f 89/17/15 90/18/16 99/27/25 98/26/24
f 90/18/16 92/160/18 100/28/26 99/27/25
f 92/160/18 101/163/27 102/164/28 100/28/26
f 103/165/29 95/162/21 104/32/30 105/166/31
f 95/162/21 94/23/20 106/33/32 104/32/30
f 94/23/20 96/24/22 107/34/33 106/33/32
f 96/24/22 97/25/23 108/35/34 107/34/33
f 97/25/23 98/26/24 109/36/35 108/35/34
f 98/26/24 99/27/25 110/37/36 109/36/35
f 99/27/25 100/28/26 111/38/37 110/37/36
f 100/28/26 102/164/28 112/39/38 111/38/37
f 102/164/28 113/167/39 114/168/40 112/39/38
f 105/166/31 104/32/30 115/42/41 116/169/42
f 104/32/30 106/33/32 117/43/43 115/42/41
f 106/33/32 107/34/33 118/44/44 117/43/43
f 107/34/33 108/35/34 119/45/45 118/44/44
f 108/35/34 109/36/35 120/46/46 119/45/45
f 109/36/35 110/37/36 121/47/47 120/46/46
f 110/37/36 111/38/37 122/48/48 121/47/47
f 111/38/37 112/39/38 123/49/49 122/48/48
f 112/39/38 114/168/40 124/170/50 123/49/49
f 116/169/42 115/42/41 125/171/51 126/172/52
f 115/42/41 117/43/43 127/53/53 125/171/51
f 117/43/43 118/44/44 128/54/54 127/53/53
f 118/44/44 119/45/45 129/55/55 128/54/54
f 119/45/45 120/46/46 130/56/56 129/55/55
f 120/46/46 121/47/47 131/57/57 130/56/56
f 121/47/47 122/48/48 132/58/58 131/57/57
f 122/48/48 123/49/49 133/59/59 132/58/58
f 123/49/49 124/170/50 134/173/60 133/174/59
f 125/171/51 127/53/53 135/175/61 136/176/62
f 127/53/53 128/54/54 137/63/63 135/175/61
f 128/54/54 129/55/55 138/64/64 137/63/63
f 129/55/55 130/56/56 139/177/65 138/178/64
f 130/56/56 131/57/57 140/66/66 139/177/65
f 131/57/57 132/58/58 141/67/67 140/66/66
f 132/58/58 133/174/59 142/179/68 141/180/67
f 135/175/61 137/63/63 143/181/69 144/182/70
f 137/63/63 138/178/64 145/183/71 143/181/69
f 139/177/65 140/66/66 146/184/72 147/185/73
f 140/66/66 141/180/67 148/186/74 146/184/72
s 2
f 1/75/75 4/78/76 5/77/77 2/76/78
f 3/79/79 8/81/80 9/80/81 4/78/76
f 4/78/76 9/80/81 10/82/82 5/77/77
f 5/77/77 10/82/82 11/84/83 6/83/84
f 7/85/85 14/87/86 15/86/87 8/81/80
f 8/81/80 15/86/87 16/88/88 9/80/81
f 9/80/81 16/88/88 17/89/89 10/82/82
f 10/82/82 17/89/89 18/90/90 11/84/83
f 11/84/83 18/90/90 19/92/91 12/91/92
f 13/93/93 22/95/94 23/94/95 14/87/86
f 14/87/86 23/94/95 24/96/96 15/86/87
f 15/86/87 24/96/96 25/97/97 16/88/88
f 16/88/88 25/97/97 26/98/98 17/89/89
f 17/89/89 26/98/98 27/99/99 18/90/90
f 18/90/90 27/99/99 28/100/100 19/92/91
f 19/92/91 28/100/100 29/102/101 20/101/102
f 21/103/103 31/105/104 32/104/105 22/95/94
f 22/95/94 32/104/105 33/106/106 23/94/95
f 23/94/95 33/106/106 34/107/107 24/96/96
f 24/96/96 34/107/107 35/108/108 25/97/97
f 25/97/97 35/108/108 36/109/109 26/98/98
f 26/98/98 36/109/109 37/110/110 27/99/99
f 27/99/99 37/110/110 38/111/111 28/100/100
f 28/100/100 38/111/111 39/112/112 29/102/101
f 29/102/101 39/112/112 40/114/113 30/113/114
f 31/105/104 41/116/115 42/115/116 32/104/105
f 32/104/105 42/115/116 43/117/117 33/106/106
f 33/106/106 43/117/117 44/118/118 34/107/107
f 34/107/107 44/118/118 45/119/119 35/108/108
f 35/108/108 45/119/119 46/120/120 36/109/109
f 36/109/109 46/120/120 47/121/121 37/110/110
f 37/110/110 47/121/121 48/122/122 38/111/111
f 38/111/111 48/122/122 49/123/123 39/112/112
f 39/112/112 49/123/123 50/124/124 40/114/113
f 41/116/115 51/126/125 52/125/126 42/115/116
f 42/115/116 52/125/126 53/127/127 43/117/117
f 43/117/117 53/127/127 54/128/128 44/118/118
f 44/118/118 54/128/128 55/129/129 45/119/119
f 45/119/119 55/129/129 56/130/130 46/120/120
f 46/120/120 56/130/130 57/131/131 47/121/121
f 47/121/121 57/131/131 58/132/132 48/122/122
f 48/122/122 58/132/132 59/133/133 49/123/123
f 49/123/123 59/133/133 60/134/134 50/124/124
f 52/125/126 61/136/135 62/135/136 53/127/127
f 53/127/127 62/135/136 63/137/137 54/128/128
f 54/128/128 63/137/137 64/138/138 55/129/129
f 55/129/129 64/138/138 65/139/139 56/130/130
f 56/130/130 65/139/139 66/140/140 57/131/131
f 57/131/131 66/140/140 67/141/141 58/132/132
f 58/132/132 67/141/141 68/142/142 59/133/133
f 62/135/136 69/144/143 70/143/144 63/137/137
f 63/137/137 70/143/144 71/145/145 64/138/138
f 65/139/139 72/147/146 73/146/147 66/140/140
f 66/140/140 73/146/147 74/148/148 67/141/141
s off
f 1/1/149 2/2/150 76/3/151 75/4/152
f 2/2/153 5/5/154 77/6/155 76/3/156
f 4/7/157 1/1/158 75/4/159 78/8/160
f 3/11/161 4/7/162 78/8/163 79/12/164
f 8/13/165 3/11/166 79/12/167 81/14/168
f 5/5/169 6/19/170 83/20/171 77/6/172
f 6/19/173 11/21/174 84/22/175 83/20/176
f 7/29/177 8/13/178 81/14/179 85/30/180
f 14/31/181 7/29/182 85/30/183 87/40/184
f 11/21/185 12/41/186 91/50/187 84/22/188
f 12/41/189 19/51/190 92/52/191 91/50/192
f 13/60/193 14/31/194 87/40/195 93/61/196
f 22/62/197 13/60/198 93/61/199 95/65/200
f 19/51/201 20/68/202 101/69/203 92/52/204
f 20/68/205 29/70/206 102/71/207 101/69/208
f 21/72/209 22/62/210 95/65/211 103/73/212
f 31/74/213 21/72/214 103/73/215 105/187/216
f 29/70/217 30/188/218 113/189/219 102/71/220
f 30/188/221 40/190/222 114/191/223 113/189/224
f 41/192/225 31/74/226 105/187/227 116/193/228
f 40/190/229 50/194/230 124/195/231 114/191/232
f 52/196/233 51/197/234 126/198/235 125/199/236
f 51/197/237 41/192/238 116/193/239 126/198/240
f 50/194/241 60/200/242 134/201/243 124/195/244
f 60/200/245 59/202/246 133/203/247 134/201/248
f 62/204/249 61/205/250 136/206/251 135/207/252
f 61/205/253 52/196/254 125/199/255 136/206/256
f 65/208/257 64/209/258 138/210/259 139/211/260
f 59/202/261 68/212/262 142/213/263 133/203/264
f 68/212/265 67/214/266 141/215/267 142/213/268
f 70/216/269 69/217/270 144/218/271 143/219/272
f 69/217/273 62/204/274 135/207/275 144/218/276
f 64/209/277 71/220/278 145/221/279 138/210/280
f 71/220/281 70/216/282 143/219/283 145/221/284
f 73/222/285 72/223/286 147/224/287 146/225/288
f 72/223/289 65/208/290 139/211/291 147/224/292
f 67/214/293 74/226/294 148/227/295 141/215/296
f 74/226/297 73/222/298 146/225/299 148/227/300
